<svg width="238" height="95" viewBox="0 0 238 95" fill="none" xmlns="http://www.w3.org/2000/svg">
    <path d="M100.97 50.5889L98.7926 44.4643H85.8262L83.6483 50.5889H79.5452L88.8524 25.2202H95.9712L105.278 50.5889H100.97ZM87.1426 40.8766H97.4922L92.328 26.3799L87.1426 40.8766Z" fill="white"/>
    <path d="M121.202 32.0717H125.012V48.5959C125.012 54.0332 120.758 58.1994 115.173 58.1994C111.145 58.1994 107.993 56.0605 106.459 52.9823L109.916 51.2787C110.897 53.3804 112.748 54.7284 115.181 54.7284C118.524 54.7284 121.212 52.1199 121.212 48.6038V44.971C120.048 48.3066 117.362 50.5436 113.838 50.5436C109.052 50.5436 105.449 46.4862 105.449 41.1232C105.449 35.7603 109.044 31.7002 113.838 31.7002C117.362 31.7002 120.048 33.9478 121.212 37.3179L121.202 32.0717ZM121.202 41.1312C121.202 37.7611 118.66 35.2242 115.208 35.2242C114.432 35.2162 113.662 35.364 112.944 35.6589C112.226 35.9538 111.574 36.3897 111.029 36.9408C110.483 37.4918 110.054 38.1468 109.767 38.8666C109.48 39.5865 109.341 40.3566 109.358 41.1312C109.358 44.5013 111.937 47.0727 115.208 47.0727C118.66 47.0727 121.202 44.5013 121.202 41.1312Z" fill="white"/>
    <path d="M147.055 42.6173H131.698C132.243 45.5522 134.602 47.6592 137.798 47.6592C138.93 47.6791 140.045 47.3802 141.015 46.7968C141.985 46.2134 142.77 45.3691 143.281 44.3607L146.472 45.7751C144.879 48.8268 141.758 50.9497 137.689 50.9497C132.105 50.9497 127.85 46.7808 127.85 41.3462C127.85 35.9116 132.027 31.7056 137.511 31.7056C143.462 31.7082 147.749 36.5644 147.055 42.6173ZM131.804 39.6452H143.207C142.59 36.9624 140.447 35.0067 137.505 35.0067C134.673 35.0067 132.458 36.9279 131.807 39.6452H131.804Z" fill="white"/>
    <path d="M165.935 25.2095H170.004L161.178 50.5782H154.2L145.377 25.2095H149.661L157.795 49.3841L165.935 25.2095Z" fill="white"/>
    <path d="M178.099 31.7083C183.683 31.7083 187.938 35.8771 187.938 41.3489C187.938 46.8207 183.683 50.9524 178.099 50.9524C172.514 50.9524 168.259 46.7835 168.259 41.3489C168.259 35.9143 172.504 31.7083 178.099 31.7083ZM178.099 47.4363C181.476 47.4363 184.018 44.8278 184.018 41.3489C184.018 37.87 181.476 35.2243 178.099 35.2243C174.721 35.2243 172.179 37.8328 172.179 41.3489C172.179 44.865 174.756 47.4363 178.099 47.4363Z" fill="white"/>
    <path d="M190.81 50.5888V23.7712H194.623V50.5888H190.81Z" fill="white"/>
    <path d="M196.764 35.4418V32.0717H200.723V26.0559L204.536 24.8591V32.0717H209.767V35.4418H204.536V43.9945C204.536 46.2394 205.48 47.2186 207.728 47.2186H209.762V50.5887H207.728C202.941 50.5887 200.718 48.3783 200.718 43.8114V35.4418H196.764Z" fill="white"/>
    <path d="M38.3406 47.5266V69.8331H45.8635L60.5424 44.4644H56.0909L42.1911 68.4903V47.5266H38.3406Z" fill="white"/>
    <path d="M49.6476 47.5266V25.2202H42.1247L27.4485 50.5889H31.8974L45.7997 26.563V47.5266H49.6476Z" fill="white"/>
    <path d="M153.564 66.5239H148.227C148.334 68.063 149.11 68.8857 150.283 68.8857C151.309 68.8857 151.849 68.408 152.115 67.6119H153.445C153.035 69.1245 151.889 69.841 150.296 69.841C148.169 69.841 146.935 68.2753 146.935 66.1392C146.935 64.003 148.188 62.4241 150.283 62.4241C152.259 62.4241 153.602 63.8305 153.602 66.0197C153.588 66.1657 153.575 66.3408 153.564 66.5239ZM148.246 65.5421H152.277C152.198 64.2683 151.434 63.3926 150.275 63.3926C149.116 63.3926 148.398 64.1224 148.241 65.5447L148.246 65.5421Z" fill="white"/>
    <path d="M154.588 70.6902V69.6951H160.883V70.6902H154.588Z" fill="white"/>
    <path d="M166.927 62.5833H168.243L165.885 69.695H163.369L161.01 62.5833H162.327L164.635 69.6286L166.927 62.5833Z" fill="white"/>
    <path d="M175.285 66.5239H169.951C170.054 68.063 170.833 68.8857 172.006 68.8857C173.033 68.8857 173.572 68.408 173.836 67.6119H175.165C174.756 69.1245 173.61 69.841 172.017 69.841C169.889 69.841 168.656 68.2753 168.656 66.1392C168.656 64.003 169.908 62.4241 172.003 62.4241C173.979 62.4241 175.322 63.8305 175.322 66.0197C175.312 66.1657 175.298 66.3408 175.285 66.5239ZM169.967 65.5421H173.998C173.918 64.2683 173.155 63.3926 171.996 63.3926C170.873 63.3926 170.121 64.1224 169.964 65.5447L169.967 65.5421Z" fill="white"/>
    <path d="M178.032 64.109C178.348 63.1139 179.045 62.4373 180.351 62.4373V63.7243H179.955C178.665 63.7243 178.032 64.1356 178.032 65.4093V69.6949H176.74V62.5832H178.032V64.109Z" fill="white"/>
    <path d="M186.759 62.5833H188.102L184.863 72.2955H183.518L184.651 68.9122H183.401L180.949 62.5833H182.279L184.691 68.7927L186.759 62.5833Z" fill="white"/>
    <path d="M194.001 59.6111H195.29V69.6949H194.001V68.1425C193.795 68.6362 193.45 69.0595 193.008 69.3611C192.565 69.6626 192.044 69.8293 191.509 69.8408C189.796 69.8408 188.507 68.3283 188.507 66.139C188.507 63.9498 189.81 62.4239 191.509 62.4239C192.838 62.4239 193.671 63.3394 194.001 64.2947V59.6111ZM194.054 66.139C194.054 64.4672 193.275 63.3925 191.926 63.3925C190.578 63.3925 189.818 64.4672 189.818 66.139C189.818 67.8108 190.581 68.8855 191.926 68.8855C193.272 68.8855 194.054 67.8108 194.054 66.139Z" fill="white"/>
    <path d="M202.821 65.1175V69.695H201.529V68.2355C201.042 69.2306 200.465 69.841 199.093 69.841C198.786 69.8516 198.48 69.8005 198.192 69.6907C197.905 69.5809 197.643 69.4146 197.422 69.2016C197.201 68.9887 197.025 68.7336 196.904 68.4514C196.784 68.1691 196.721 67.8656 196.721 67.5588C196.721 65.9003 198.367 65.5819 199.646 65.4359L201.542 65.2369V65.091C201.542 64.1622 201.029 63.3794 199.909 63.3794C198.92 63.3794 198.367 63.9897 198.277 64.6664H196.947C197.104 63.3263 198.239 62.4241 199.899 62.4241C202.045 62.4373 202.821 63.7907 202.821 65.1175ZM201.529 66.6699V66.1392L200.119 66.2851C199.143 66.3912 198.037 66.5239 198.037 67.5588C198.037 68.4743 198.75 68.9785 199.566 68.9785C200.869 68.9785 201.529 67.933 201.529 66.6699Z" fill="white"/>
    <path d="M209.209 62.5833H210.538L207.297 72.2955H205.954L207.087 68.9122H205.834L203.385 62.5833H204.715L207.127 68.7927L209.209 62.5833Z" fill="white"/>
</svg>
